<svg xmlns="http://www.w3.org/2000/svg" viewBox="0 0 900 1350" role="img" aria-labelledby="t d"><title id="t">The Names We Buried cover art</title><desc id="d">A moonlit house above graves and fog, with red threads and handwritten names buried in the ground.</desc><defs><linearGradient id="sky" x1="0" y1="0" x2="0" y2="1"><stop stop-color="#080a10"/><stop offset=".52" stop-color="#141117"/><stop offset="1" stop-color="#1c1014"/></linearGradient><radialGradient id="moon"><stop stop-color="#efe0b9"/><stop offset=".35" stop-color="#b9a477" stop-opacity=".7"/><stop offset="1" stop-color="#000" stop-opacity="0"/></radialGradient><linearGradient id="fog" x1="0" x2="1"><stop stop-color="#d6cbb5" stop-opacity="0"/><stop offset=".5" stop-color="#d6cbb5" stop-opacity=".18"/><stop offset="1" stop-color="#d6cbb5" stop-opacity="0"/></linearGradient><filter id="grain"><feTurbulence type="fractalNoise" baseFrequency=".8" numOctaves="4"/><feColorMatrix values="1 0 0 0 0 0 1 0 0 0 0 0 1 0 0 0 0 0 .08 0"/></filter><filter id="blur"><feGaussianBlur stdDeviation="18"/></filter></defs><rect width="900" height="1350" fill="url(#sky)"/><circle cx="690" cy="230" r="180" fill="url(#moon)"/><path d="M0 720Q180 640 330 700T650 680T900 690V1350H0Z" fill="#08090a"/><path d="M300 650 450 500 603 650V875H300Z" fill="#090909" stroke="#342025" stroke-width="3"/><path d="M345 650V560H555V650" fill="#0c0b0b"/><path d="M420 570h60v95h-60zM350 690h74v110h-74zM480 690h74v110h-74z" fill="#b16c3c" opacity=".24"/><path d="M300 650 450 500 603 650" fill="none" stroke="#78503b" stroke-width="5" opacity=".45"/><path d="M449 875V742h58v133" fill="#030303"/><g fill="#111" stroke="#40343b" stroke-width="2"><path d="M70 1080v-120h70v120"/><path d="M180 1120v-165h74v165"/><path d="M680 1100V945h68v155"/><path d="M765 1150V995h72v155"/><path d="M300 1160v-135h66v135"/><path d="M555 1175v-145h64v145"/></g><g stroke="#6f2031" stroke-width="2" fill="none" opacity=".72"><path d="M110 1060C230 1010 270 890 412 860S640 805 775 970"/><path d="M205 1090C350 1060 365 970 510 925S700 900 808 1030"/><path d="M350 1130C460 1080 522 1010 640 1015"/></g><g fill="#b8a88d" opacity=".38" font-family="Georgia,serif" font-size="18" font-style="italic"><text x="84" y="1035">Mara</text><text x="208" y="1080">Elias</text><text x="314" y="1118">Ruth</text><text x="570" y="1163">Jonah</text><text x="702" y="1088">Clara</text></g><g opacity=".25"><ellipse cx="260" cy="915" rx="350" ry="54" fill="url(#fog)" filter="url(#blur)"/><ellipse cx="620" cy="1040" rx="420" ry="64" fill="url(#fog)" filter="url(#blur)"/><ellipse cx="420" cy="1220" rx="500" ry="62" fill="url(#fog)" filter="url(#blur)"/></g><rect width="900" height="1350" filter="url(#grain)" opacity=".8"/></svg>